<?xml version="1.0" encoding="UTF-8" standalone="no"?>
<!-- Created with Inkscape (http://www.inkscape.org/) -->

<svg
   xmlns:dc="http://purl.org/dc/elements/1.1/"
   xmlns:cc="http://creativecommons.org/ns#"
   xmlns:rdf="http://www.w3.org/1999/02/22-rdf-syntax-ns#"
   xmlns:svg="http://www.w3.org/2000/svg"
   xmlns="http://www.w3.org/2000/svg"
   xmlns:xlink="http://www.w3.org/1999/xlink"
   xmlns:sodipodi="http://sodipodi.sourceforge.net/DTD/sodipodi-0.dtd"
   xmlns:inkscape="http://www.inkscape.org/namespaces/inkscape"
   sodipodi:docname="Zeichnung-1.svg"
   inkscape:version="0.48.3.1 r9886"
   version="1.1"
   id="svg2"
   height="156.49802"
   width="348.65948">
  <sodipodi:namedview
     id="base"
     pagecolor="#ffffff"
     bordercolor="#666666"
     borderopacity="1.0"
     inkscape:pageopacity="0.0"
     inkscape:pageshadow="2"
     inkscape:zoom="1"
     inkscape:cx="211.74871"
     inkscape:cy="-62.344416"
     inkscape:document-units="px"
     inkscape:current-layer="layer1"
     showgrid="false"
     inkscape:window-width="1200"
     inkscape:window-height="1740"
     inkscape:window-x="-8"
     inkscape:window-y="-8"
     inkscape:window-maximized="1"
     inkscape:snap-global="false"
     fit-margin-left="12"
     fit-margin-top="12"
     fit-margin-right="12"
     fit-margin-bottom="12">
    <inkscape:grid
       originy="-869.82715px"
       originx="-129.81337px"
       snapvisiblegridlinesonly="true"
       enabled="true"
       visible="true"
       empspacing="5"
       id="grid2987"
       type="xygrid" />
  </sodipodi:namedview>
  <defs
     id="defs4">
    <marker
       style="overflow:visible"
       id="EmptyTriangleOutL"
       refX="0"
       refY="0"
       orient="auto"
       inkscape:stockid="EmptyTriangleOutL">
      <path
         transform="matrix(0.8,0,0,0.8,-4.8,0)"
         style="fill:#ffffff;fill-rule:evenodd;stroke:#000000;stroke-width:1pt"
         d="m 5.77,0 -8.65,5 0,-10 8.65,5 z"
         id="path6694"
         inkscape:connector-curvature="0" />
    </marker>
    <marker
       style="overflow:visible"
       id="EmptyTriangleInL"
       refX="0"
       refY="0"
       orient="auto"
       inkscape:stockid="EmptyTriangleInL">
      <path
         transform="matrix(-0.8,0,0,-0.8,4.8,0)"
         style="fill:#ffffff;fill-rule:evenodd;stroke:#000000;stroke-width:1pt"
         d="m 5.77,0 -8.65,5 0,-10 8.65,5 z"
         id="path6685"
         inkscape:connector-curvature="0" />
    </marker>
    <linearGradient
       id="linearGradient5729"
       inkscape:collect="always">
      <stop
         id="stop5731"
         offset="0"
         style="stop-color:#e6e6e6;stop-opacity:1;" />
      <stop
         id="stop5733"
         offset="1"
         style="stop-color:#e6e6e6;stop-opacity:0;" />
    </linearGradient>
    <linearGradient
       id="linearGradient4245"
       inkscape:collect="always">
      <stop
         id="stop4247"
         offset="0"
         style="stop-color:#000000;stop-opacity:1;" />
      <stop
         id="stop4249"
         offset="1"
         style="stop-color:#000000;stop-opacity:0;" />
    </linearGradient>
    <linearGradient
       id="linearGradient24516">
      <stop
         style="stop-color:#000000;stop-opacity:0.28333333;"
         offset="0"
         id="stop24518" />
      <stop
         style="stop-color:#000000;stop-opacity:0;"
         offset="1"
         id="stop24520" />
    </linearGradient>
    <filter
       color-interpolation-filters="sRGB"
       x="-0.5"
       y="-0.5"
       height="2"
       width="2"
       inkscape:menu-tooltip="Convert to small scattered particles with some thickness"
       inkscape:menu="Scatter"
       inkscape:label="Air spray"
       id="filter3033">
      <feGaussianBlur
         result="result1"
         stdDeviation="0.01"
         id="feGaussianBlur3035" />
      <feBlend
         mode="multiply"
         result="fbSourceGraphic"
         in2="result1"
         id="feBlend3037" />
      <feTurbulence
         result="result3"
         numOctaves="3"
         seed="0"
         type="fractalNoise"
         baseFrequency="0.8"
         id="feTurbulence3039" />
      <feDisplacementMap
         result="result2"
         scale="50"
         yChannelSelector="G"
         xChannelSelector="R"
         in="fbSourceGraphic"
         in2="result3"
         id="feDisplacementMap3041" />
      <feMorphology
         result="result4"
         operator="dilate"
         radius="1"
         id="feMorphology3043" />
      <feBlend
         mode="screen"
         in2="result2"
         id="feBlend3045" />
    </filter>
    <filter
       color-interpolation-filters="sRGB"
       x="-0.5"
       y="-0.5"
       height="2"
       width="2"
       inkscape:menu-tooltip="Convert to small scattered particles with some thickness"
       inkscape:menu="Scatter"
       inkscape:label="Air spray"
       id="filter3843">
      <feGaussianBlur
         result="result1"
         stdDeviation="0.01"
         id="feGaussianBlur3845" />
      <feBlend
         mode="multiply"
         result="fbSourceGraphic"
         in2="result1"
         id="feBlend3847" />
      <feTurbulence
         result="result3"
         numOctaves="3"
         seed="0"
         type="fractalNoise"
         baseFrequency="0.8"
         id="feTurbulence3849" />
      <feDisplacementMap
         result="result2"
         scale="50"
         yChannelSelector="G"
         xChannelSelector="R"
         in="fbSourceGraphic"
         in2="result3"
         id="feDisplacementMap3851" />
      <feMorphology
         result="result4"
         operator="dilate"
         radius="1"
         id="feMorphology3853" />
      <feBlend
         mode="screen"
         in2="result2"
         id="feBlend3855" />
    </filter>
    <filter
       x="-0.5"
       y="-0.5"
       height="2"
       width="2"
       color-interpolation-filters="sRGB"
       inkscape:menu-tooltip="Same as Bubbly Bumps but with transparent highlights"
       inkscape:menu="Image effects, transparent"
       inkscape:label="Bubbly Bumps alpha"
       id="filter3885">
      <feTurbulence
         baseFrequency="0.002 0.107"
         numOctaves="1"
         id="feTurbulence3887" />
      <feColorMatrix
         result="result91"
         values="2 0 0 0 0 0 0 0 0 0 0 0 0 0 0 0 0 0 0.5 0.5"
         id="feColorMatrix3889" />
      <feDisplacementMap
         result="fbSourceGraphic"
         in="SourceGraphic"
         scale="14.3"
         xChannelSelector="R"
         yChannelSelector="A"
         in2="result91"
         id="feDisplacementMap3891" />
      <feColorMatrix
         id="feColorMatrix3893"
         values="0 0 0 -1 0 0 0 0 -1 0 0 0 0 -1 0 0 0 0 1 0"
         in="fbSourceGraphic"
         result="fbSourceGraphicAlpha" />
      <feGaussianBlur
         in="fbSourceGraphic"
         result="result1"
         stdDeviation="0.01"
         id="feGaussianBlur3895" />
      <feBlend
         mode="multiply"
         result="fbSourceGraphic"
         in2="result1"
         id="feBlend3897" />
      <feTurbulence
         result="result3"
         numOctaves="3"
         seed="0"
         type="fractalNoise"
         baseFrequency="0.8"
         id="feTurbulence3899" />
      <feDisplacementMap
         result="result2"
         scale="50"
         yChannelSelector="G"
         xChannelSelector="R"
         in="fbSourceGraphic"
         in2="result3"
         id="feDisplacementMap3901" />
      <feMorphology
         result="result4"
         operator="dilate"
         radius="1"
         id="feMorphology3903" />
      <feBlend
         result="fbSourceGraphic"
         mode="screen"
         in2="result2"
         id="feBlend3905" />
      <feColorMatrix
         id="feColorMatrix3907"
         values="0 0 0 -1 0 0 0 0 -1 0 0 0 0 -1 0 0 0 0 1 0"
         in="fbSourceGraphic"
         result="fbSourceGraphicAlpha" />
      <feGaussianBlur
         stdDeviation="0.5"
         in="fbSourceGraphic"
         result="result0"
         id="feGaussianBlur3909" />
      <feTurbulence
         type="fractalNoise"
         result="result1"
         numOctaves="10"
         seed="300"
         baseFrequency="0.2"
         id="feTurbulence3911" />
      <feGaussianBlur
         result="result8"
         stdDeviation="4"
         id="feGaussianBlur3913" />
      <feDisplacementMap
         yChannelSelector="A"
         xChannelSelector="R"
         in="fbSourceGraphic"
         scale="5"
         result="result7"
         in2="result8"
         id="feDisplacementMap3915" />
      <feComposite
         in="result7"
         operator="in"
         result="result2"
         in2="result1"
         id="feComposite3917" />
      <feComposite
         k4="0"
         k2="0"
         k1="0"
         result="result92"
         operator="arithmetic"
         in="result0"
         k3="3"
         in2="result2"
         id="feComposite3919" />
      <feBlend
         mode="multiply"
         result="fbSourceGraphic"
         in2="result2"
         id="feBlend3921" />
      <feColorMatrix
         result="fbSourceGraphicAlpha"
         in="fbSourceGraphic"
         values="1 0 0 -1 0 1 0 1 -1 0 1 0 0 -1 0 -1.8 -0.5 0 5.7 -3.5 "
         id="feColorMatrix3923" />
      <feGaussianBlur
         result="result0"
         in="fbSourceGraphicAlpha"
         stdDeviation="0.5"
         id="feGaussianBlur3925" />
      <feSpecularLighting
         specularExponent="5"
         surfaceScale="-5"
         result="result6"
         id="feSpecularLighting3927">
        <feDistantLight
           elevation="25"
           azimuth="225"
           id="feDistantLight3929" />
      </feSpecularLighting>
      <feComposite
         operator="in"
         result="result2"
         in="fbSourceGraphic"
         in2="result6"
         id="feComposite3931" />
      <feComposite
         k4="0"
         k1="0"
         k3="1"
         k2="1"
         operator="arithmetic"
         result="result4"
         in="result2"
         in2="result2"
         id="feComposite3933" />
    </filter>
    <linearGradient
       gradientUnits="userSpaceOnUse"
       y2="-2957.2898"
       x2="-391.27728"
       y1="-2957.2898"
       x1="-413.11371"
       id="linearGradient4251"
       xlink:href="#linearGradient4245"
       inkscape:collect="always" />
    <linearGradient
       gradientUnits="userSpaceOnUse"
       y2="-2957.2898"
       x2="-391.27728"
       y1="-2957.2898"
       x1="-413.11371"
       id="linearGradient5737"
       xlink:href="#linearGradient5729"
       inkscape:collect="always" />
    <filter
       color-interpolation-filters="sRGB"
       inkscape:menu-tooltip="Adds a small scale graininess"
       inkscape:menu="Image effects"
       inkscape:label="Film grain"
       x="0"
       y="0"
       width="1"
       height="1"
       id="filter6389">
      <feTurbulence
         result="result0"
         seed="0"
         baseFrequency="1"
         numOctaves="3"
         type="fractalNoise"
         id="feTurbulence6391" />
      <feColorMatrix
         type="saturate"
         values="0"
         result="result4"
         id="feColorMatrix6393" />
      <feComposite
         result="result2"
         k3="0.5"
         k2="0.5"
         k1="1.25"
         operator="arithmetic"
         in="SourceGraphic"
         in2="result4"
         id="feComposite6395"
         k4="0" />
      <feBlend
         in="result2"
         mode="normal"
         result="result5"
         in2="SourceGraphic"
         id="feBlend6397" />
      <feComposite
         result="result3"
         operator="in"
         in="result5"
         in2="SourceGraphic"
         id="feComposite6399" />
    </filter>
    <filter
       color-interpolation-filters="sRGB"
       inkscape:menu-tooltip="A blurry hollow going parallel to the edge on the inside"
       inkscape:menu="Morphology"
       inkscape:label="Parallel hollow"
       x="0"
       y="0"
       width="1"
       height="1"
       id="filter6401">
      <feTurbulence
         result="result0"
         seed="0"
         baseFrequency="1"
         numOctaves="3"
         type="fractalNoise"
         id="feTurbulence6403" />
      <feColorMatrix
         type="saturate"
         values="0"
         result="result4"
         id="feColorMatrix6405" />
      <feComposite
         result="result2"
         k3="0.5"
         k2="0.5"
         k1="1.25"
         operator="arithmetic"
         in="SourceGraphic"
         in2="result4"
         id="feComposite6407"
         k4="0" />
      <feBlend
         in="result2"
         mode="normal"
         result="result5"
         in2="SourceGraphic"
         id="feBlend6409" />
      <feComposite
         result="fbSourceGraphic"
         operator="in"
         in="result5"
         in2="SourceGraphic"
         id="feComposite6411" />
      <feColorMatrix
         id="feColorMatrix7368"
         values="0 0 0 -1 0 0 0 0 -1 0 0 0 0 -1 0 0 0 0 1 0"
         in="fbSourceGraphic"
         result="fbSourceGraphicAlpha" />
      <feGaussianBlur
         result="result1"
         in="fbSourceGraphicAlpha"
         stdDeviation="7.5"
         id="feGaussianBlur7370" />
      <feComposite
         k4="-2"
         k1="-1"
         k2="3.2"
         operator="arithmetic"
         in2="result1"
         id="feComposite7372"
         k3="0" />
      <feColorMatrix
         result="result91"
         values="0 0 0 0 0 0 1 0 0 0 0 0 1 0 0 0 0 0 3 0 "
         id="feColorMatrix7374" />
      <feComposite
         operator="out"
         in="fbSourceGraphic"
         result="fbSourceGraphic"
         in2="result91"
         id="feComposite7376" />
      <feGaussianBlur
         result="result92"
         stdDeviation="2"
         in="fbSourceGraphic"
         id="feGaussianBlur7378" />
      <feComposite
         result="result93"
         in="fbSourceGraphic"
         operator="out"
         in2="result92"
         id="feComposite7380" />
      <feBlend
         result="result94"
         mode="multiply"
         in2="result93"
         id="feBlend7382" />
      <feBlend
         mode="darken"
         in2="result94"
         id="feBlend7384" />
    </filter>
    <filter
       color-interpolation-filters="sRGB"
       inkscape:menu-tooltip="A blurry hollow going parallel to the edge on the inside"
       inkscape:menu="Morphology"
       inkscape:label="Parallel hollow"
       id="filter7350">
      <feGaussianBlur
         result="result1"
         in="SourceAlpha"
         stdDeviation="7.5"
         id="feGaussianBlur7352" />
      <feComposite
         k4="-2"
         k1="-1"
         k2="3.2"
         operator="arithmetic"
         in2="result1"
         id="feComposite7354"
         k3="0" />
      <feColorMatrix
         result="result91"
         values="0 0 0 0 0 0 1 0 0 0 0 0 1 0 0 0 0 0 3 0 "
         id="feColorMatrix7356" />
      <feComposite
         operator="out"
         in="SourceGraphic"
         result="fbSourceGraphic"
         in2="result91"
         id="feComposite7358" />
      <feGaussianBlur
         result="result92"
         stdDeviation="2"
         in="fbSourceGraphic"
         id="feGaussianBlur7360" />
      <feComposite
         result="result93"
         in="fbSourceGraphic"
         operator="out"
         in2="result92"
         id="feComposite7362" />
      <feBlend
         result="result94"
         mode="multiply"
         in2="result93"
         id="feBlend7364" />
      <feBlend
         mode="darken"
         in2="result94"
         id="feBlend7366" />
    </filter>
    <filter
       color-interpolation-filters="sRGB"
       x="-0.5"
       y="-0.5"
       height="2"
       width="2"
       inkscape:menu-tooltip="Convert to small scattered particles with some thickness"
       inkscape:menu="Scatter"
       inkscape:label="Air spray"
       id="filter3121">
      <feGaussianBlur
         result="result1"
         stdDeviation="0.01"
         id="feGaussianBlur3123" />
      <feBlend
         mode="multiply"
         result="fbSourceGraphic"
         in2="result1"
         id="feBlend3125" />
      <feTurbulence
         result="result3"
         numOctaves="3"
         seed="0"
         type="fractalNoise"
         baseFrequency="0.8"
         id="feTurbulence3127" />
      <feDisplacementMap
         result="result2"
         scale="50"
         yChannelSelector="G"
         xChannelSelector="R"
         in="fbSourceGraphic"
         in2="result3"
         id="feDisplacementMap3129" />
      <feMorphology
         result="result4"
         operator="dilate"
         radius="1"
         id="feMorphology3131" />
      <feBlend
         mode="screen"
         in2="result2"
         id="feBlend3133" />
    </filter>
    <filter
       color-interpolation-filters="sRGB"
       x="-0.5"
       y="-0.5"
       height="2"
       width="2"
       inkscape:menu-tooltip="Convert to small scattered particles with some thickness"
       inkscape:menu="Scatter"
       inkscape:label="Air spray"
       id="filter3137">
      <feGaussianBlur
         result="result1"
         stdDeviation="0.01"
         id="feGaussianBlur3139" />
      <feBlend
         mode="multiply"
         result="fbSourceGraphic"
         in2="result1"
         id="feBlend3141" />
      <feTurbulence
         result="result3"
         numOctaves="3"
         seed="0"
         type="fractalNoise"
         baseFrequency="0.8"
         id="feTurbulence3143" />
      <feDisplacementMap
         result="result2"
         scale="50"
         yChannelSelector="G"
         xChannelSelector="R"
         in="fbSourceGraphic"
         in2="result3"
         id="feDisplacementMap3145" />
      <feMorphology
         result="result4"
         operator="dilate"
         radius="1"
         id="feMorphology3147" />
      <feBlend
         mode="screen"
         in2="result2"
         id="feBlend3149" />
    </filter>
    <filter
       color-interpolation-filters="sRGB"
       x="-0.5"
       y="-0.5"
       height="2"
       width="2"
       inkscape:menu-tooltip="Convert to small scattered particles with some thickness"
       inkscape:menu="Scatter"
       inkscape:label="Air spray"
       id="filter3933">
      <feGaussianBlur
         result="result1"
         stdDeviation="0.01"
         id="feGaussianBlur3935" />
      <feBlend
         mode="multiply"
         result="fbSourceGraphic"
         in2="result1"
         id="feBlend3937" />
      <feTurbulence
         result="result3"
         numOctaves="3"
         seed="0"
         type="fractalNoise"
         baseFrequency="0.8"
         id="feTurbulence3939" />
      <feDisplacementMap
         result="result2"
         scale="50"
         yChannelSelector="G"
         xChannelSelector="R"
         in="fbSourceGraphic"
         in2="result3"
         id="feDisplacementMap3941" />
      <feMorphology
         result="result4"
         operator="dilate"
         radius="1"
         id="feMorphology3943" />
      <feBlend
         mode="screen"
         in2="result2"
         id="feBlend3945" />
    </filter>
    <filter
       color-interpolation-filters="sRGB"
       x="-0.5"
       y="-0.5"
       height="2"
       width="2"
       inkscape:menu-tooltip="Convert to small scattered particles with some thickness"
       inkscape:menu="Scatter"
       inkscape:label="Air spray"
       id="filter3949">
      <feGaussianBlur
         result="result1"
         stdDeviation="0.01"
         id="feGaussianBlur3951" />
      <feBlend
         mode="multiply"
         result="fbSourceGraphic"
         in2="result1"
         id="feBlend3953" />
      <feTurbulence
         result="result3"
         numOctaves="3"
         seed="0"
         type="fractalNoise"
         baseFrequency="0.8"
         id="feTurbulence3955" />
      <feDisplacementMap
         result="result2"
         scale="50"
         yChannelSelector="G"
         xChannelSelector="R"
         in="fbSourceGraphic"
         in2="result3"
         id="feDisplacementMap3957" />
      <feMorphology
         result="result4"
         operator="dilate"
         radius="1"
         id="feMorphology3959" />
      <feBlend
         mode="screen"
         in2="result2"
         id="feBlend3961" />
    </filter>
    <filter
       color-interpolation-filters="sRGB"
       x="-0.5"
       y="-0.5"
       height="2"
       width="2"
       inkscape:menu-tooltip="Convert to small scattered particles with some thickness"
       inkscape:menu="Scatter"
       inkscape:label="Air spray"
       id="filter3989">
      <feGaussianBlur
         result="result1"
         stdDeviation="0.01"
         id="feGaussianBlur3991" />
      <feBlend
         mode="multiply"
         result="fbSourceGraphic"
         in2="result1"
         id="feBlend3993" />
      <feTurbulence
         result="result3"
         numOctaves="3"
         seed="0"
         type="fractalNoise"
         baseFrequency="0.8"
         id="feTurbulence3995" />
      <feDisplacementMap
         result="result2"
         scale="50"
         yChannelSelector="G"
         xChannelSelector="R"
         in="fbSourceGraphic"
         in2="result3"
         id="feDisplacementMap3997" />
      <feMorphology
         result="result4"
         operator="dilate"
         radius="1"
         id="feMorphology3999" />
      <feBlend
         mode="screen"
         in2="result2"
         id="feBlend4001" />
    </filter>
    <pattern
       id="pattern5515"
       patternTransform="translate(239.38714,-682.11656)"
       height="3"
       width="222.00062"
       patternUnits="userSpaceOnUse">
      <path
         style="fill:none;stroke:#000000;stroke-width:1px;stroke-linecap:butt;stroke-linejoin:miter;stroke-opacity:1"
         d="m 0,2.51215 c 224,-2 222,-2 222,-2"
         id="path5495"
         inkscape:connector-curvature="0" />
    </pattern>
    <clipPath
       id="clipPath">
      <path
         style="fill:none;stroke:#000000;stroke-width:1px;stroke-linecap:butt;stroke-linejoin:miter;stroke-opacity:1"
         d="m 116,-758.3316 c 266,85 308,69 325,59 17,-10 -4,8 32,-19 36,-27 45,-41 50,-46 5,-5 10,-18 13,-24 3,-6 0,-29 1,-35 1,-6 1,-14 1,-14 z"
         id="path6562"
         inkscape:connector-curvature="0"
         transform="translate(43.387137,-0.27280764)" />
    </clipPath>
    <filter
       id="filter"
       height="2"
       width="2"
       x="-0.5"
       y="-0.5"
       color-interpolation-filters="sRGB">
      <feGaussianBlur
         stdDeviation="5.0"
         id="feGaussianBlur6693" />
    </filter>
    <clipPath
       id="clipPathr">
      <path
         sodipodi:end="7.0751898"
         sodipodi:start="4.0574777"
         d="m 190.13192,-314.4005 a 51.5,48 0 0 1 67.54271,72.23351 L 221.5,-276.3316 z"
         sodipodi:ry="48"
         sodipodi:rx="51.5"
         sodipodi:cy="-276.3316"
         sodipodi:cx="221.5"
         id="path7332"
         style="opacity:0.69696966;fill:#3333ce;fill-opacity:1;stroke:#000000;stroke-width:1;stroke-linecap:square;stroke-linejoin:miter;stroke-miterlimit:4;stroke-opacity:1;stroke-dasharray:none;stroke-dashoffset:34.00000095"
         sodipodi:type="arc" />
    </clipPath>
    <filter
       y="-0.5"
       x="-0.5"
       width="2"
       height="2"
       id="filterq"
       color-interpolation-filters="sRGB">
      <feGaussianBlur
         id="feGaussianBlur7467"
         stdDeviation="5.0" />
    </filter>
  </defs>
  <metadata
     id="metadata7">
    <rdf:RDF>
      <cc:Work
         rdf:about="">
        <dc:format>image/svg+xml</dc:format>
        <dc:type
           rdf:resource="http://purl.org/dc/dcmitype/StillImage" />
        <dc:title></dc:title>
      </cc:Work>
    </rdf:RDF>
  </metadata>
  <g
     transform="translate(-129.81337,-26.037013)"
     id="layer1"
     inkscape:groupmode="layer"
     inkscape:label="Ebene 1">
    <path
       transform="translate(43.387137,-0.27280764)"
       inkscape:connector-curvature="0"
       id="path4195"
       d=""
       style="fill:#000000;fill-opacity:1;fill-rule:evenodd;stroke:#000000;stroke-width:1;stroke-linecap:square;stroke-linejoin:miter;stroke-miterlimit:4;stroke-opacity:1;stroke-dasharray:none;stroke-dashoffset:34.00000095" />
    <path
       transform="translate(43.387137,-0.27280764)"
       inkscape:connector-curvature="0"
       id="path4197"
       d=""
       style="fill:#000000;fill-opacity:1;fill-rule:evenodd;stroke:#000000;stroke-width:1;stroke-linecap:square;stroke-linejoin:miter;stroke-miterlimit:4;stroke-opacity:1;stroke-dasharray:none;stroke-dashoffset:34.00000095" />
    <g
       id="g8155">
      <g
         transform="matrix(0.77129355,0,0,0.85713246,460.62274,2591.4873)"
         id="g5739">
        <path
           style="fill:#000000;fill-opacity:0.97692303;stroke:#000000;stroke-width:1.22988415px;stroke-linecap:square;stroke-linejoin:miter;stroke-opacity:1"
           d="m -391.91613,-2969.6358 -20.80137,0 0.39368,14.2797 c 0,0 2.60992,5.5352 5.09477,7.2625 2.69926,1.8763 4.53746,2.9299 9.67381,2.6824 5.79381,-0.3567 5.63911,-24.2246 5.63911,-24.2246 z m -15.61789,21.2197 c -2.33828,-1.6478 -4.767,-6.8988 -4.767,-6.8988 l 0.29114,-13.4596 c 0,0 4.68469,3.3936 9.71679,3.9475 5.48578,0.6039 10.34035,-4.317 10.34035,-4.317 0,0 0.0251,23.1368 -5.24449,23.6596 -6.44381,0.3617 -7.46133,-0.9054 -10.33679,-2.9317 z"
           id="path5741"
           inkscape:connector-curvature="0"
           sodipodi:nodetypes="cccaccaccscca" />
      </g>
      <path
         style="fill:none;stroke:#000000;stroke-width:1.20000005;stroke-linecap:butt;stroke-linejoin:miter;stroke-miterlimit:10;stroke-opacity:1;stroke-dasharray:none"
         d="m 145.90072,104.57471 c 0,0 3.96361,0.92157 4.16231,0.83435 l 4.6733,-2.05128 c -1.20022,2.11417 -3.33629,6.21638 -3.33629,6.21638 l -1.1742,17.49366 -0.18184,-8.78911 -0.18182,-8.78908 z"
         id="path7188"
         inkscape:connector-curvature="0"
         sodipodi:nodetypes="cscccccc" />
      <g
         id="flowRoot7732"
         style="font-size:24px;font-style:normal;font-weight:normal;line-height:125%;letter-spacing:0px;word-spacing:0px;fill:#000000;fill-opacity:1;stroke:none;font-family:Sans"
         transform="matrix(0.58030903,0,0,0.60302056,134.77939,274.42943)">
        <path
           id="path8015"
           d="m 29.941406,-172.28999 -2.109375,0 0,-13.4414 c -0.507819,0.48439 -1.173834,0.96876 -1.998047,1.45312 -0.824222,0.48439 -1.564456,0.84767 -2.220703,1.08985 l 0,-2.03907 c 1.179684,-0.55467 2.210933,-1.22654 3.09375,-2.01562 0.882806,-0.78905 1.507806,-1.55467 1.875,-2.29688 l 1.359375,0 z"
           inkscape:connector-curvature="0" />
      </g>
      <path
         sodipodi:nodetypes="cscccscc"
         inkscape:connector-curvature="0"
         id="path6441"
         d="m 199.54315,58.964559 c 0.69099,-0.966341 0.10333,-2.516465 -0.47152,-3.46922 -0.33173,-0.549822 -3.48571,-2.726346 -5.31582,0.830215 -1.45614,3.19631 4.41733,5.222954 5.78734,2.639005 z m -6.59943,-3.133337 c 0.93201,-4.163339 5.12931,-3.966217 6.80859,-1.481616 0.80208,1.186732 1.02546,2.947866 0.0915,4.227663 -1.7005,3.55653 -7.08617,0.987928 -6.90005,-2.746047 z"
         style="fill:#000000;fill-opacity:1;stroke:#000000;stroke-width:0.9999997px;stroke-linecap:butt;stroke-linejoin:miter;stroke-opacity:1" />
      <path
         style="fill:none;stroke:#000000;stroke-width:1px;stroke-linecap:butt;stroke-linejoin:miter;stroke-opacity:1"
         d="m 196.57927,115.69637 1.02421,1.19747 4.12699,4.91422 -4.13061,-2.6613 -2.64107,-2.09035 -3.29588,-0.4786 3.57648,-2.02661 5.39403,-6.11032 z"
         id="path7190"
         inkscape:connector-curvature="0"
         sodipodi:nodetypes="ccccccccc" />
      <g
         id="flowRoot7740"
         style="font-size:24px;font-style:normal;font-weight:normal;line-height:125%;letter-spacing:0px;word-spacing:0px;fill:#000000;fill-opacity:1;stroke:none;font-family:Sans"
         transform="matrix(0.58030903,0,0,0.60302056,132.81283,274.25276)">
        <path
           id="path8010"
           d="m 104.94141,-172.28999 -2.10938,0 0,-13.4414 c -0.50782,0.48439 -1.17383,0.96876 -1.99805,1.45312 -0.82422,0.48439 -1.564452,0.84767 -2.220699,1.08985 l 0,-2.03907 c 1.179684,-0.55467 2.210929,-1.22654 3.093749,-2.01562 0.88281,-0.78905 1.50781,-1.55467 1.875,-2.29688 l 1.35938,0 z"
           inkscape:connector-curvature="0" />
        <path
           id="path8012"
           d="m 110.35547,-180.76264 c 0,-2.03124 0.20898,-3.66601 0.62695,-4.9043 0.41797,-1.23827 1.03906,-2.19334 1.86328,-2.86523 0.82422,-0.67186 1.86133,-1.0078 3.11133,-1.00782 0.92187,2e-5 1.73046,0.18557 2.42578,0.55664 0.69531,0.37111 1.26952,0.90627 1.72266,1.60547 0.45311,0.69924 0.80858,1.5508 1.06641,2.55469 0.2578,1.00392 0.3867,2.35743 0.38671,4.06055 -10e-6,2.01563 -0.20704,3.64258 -0.62109,4.88086 -0.41407,1.23828 -1.03321,2.19531 -1.85742,2.87109 -0.82423,0.67578 -1.86524,1.01367 -3.12305,1.01367 -1.65625,0 -2.95703,-0.59375 -3.90234,-1.78125 -1.13282,-1.42968 -1.69922,-3.75781 -1.69922,-6.98437 z m 2.16797,0 c -10e-6,2.82032 0.33007,4.69727 0.99023,5.63086 0.66015,0.93359 1.47461,1.40039 2.44336,1.40039 0.96874,0 1.7832,-0.46875 2.44336,-1.40625 0.66015,-0.9375 0.99022,-2.8125 0.99024,-5.625 -2e-5,-2.82812 -0.33009,-4.70702 -0.99024,-5.63672 -0.66016,-0.92967 -1.48243,-1.39452 -2.4668,-1.39453 -0.96875,1e-5 -1.74219,0.41017 -2.32031,1.23047 -0.72656,1.04688 -1.08985,2.98048 -1.08984,5.80078 z"
           inkscape:connector-curvature="0" />
      </g>
      <g
         id="g6434"
         transform="matrix(1.1472123,0,0,1.049484,702.61757,3155.2669)">
        <path
           sodipodi:nodetypes="cccsccsccsccs"
           inkscape:connector-curvature="0"
           id="path6436"
           d="m -391.91613,-2969.6358 -20.80137,0 0.39368,14.2797 c 0,0 2.13916,14.1132 4.73927,17.2352 2.31704,2.7821 6.91724,2.7562 11.3868,1.2617 4.37163,-2.9861 4.28162,-32.7766 4.28162,-32.7766 z m -14.93921,32.1896 c -3.54864,-3.6467 -5.44568,-17.8687 -5.44568,-17.8687 l 0.29114,-13.4596 c 0,0 4.68469,3.3936 9.71679,3.9475 5.48578,0.6039 10.34035,-4.317 10.34035,-4.317 0,0 0.38086,31.8702 -5.17985,32.6046 -6.12058,1.4195 -8.32714,0.5274 -9.72275,-0.9068 z"
           style="fill:#000000;fill-opacity:0.97692303;stroke:#000000;stroke-width:0.91135639px;stroke-linecap:square;stroke-linejoin:miter;stroke-opacity:1" />
      </g>
      <path
         style="fill:none;stroke:#000000;stroke-width:1.20000005;stroke-linecap:butt;stroke-linejoin:miter;stroke-miterlimit:10;stroke-opacity:1;stroke-dasharray:none"
         d="m 233.71644,97.722372 c 0,0 6.60189,1.507546 6.93286,1.364865 l 7.78396,-3.355544 c -1.99912,3.458419 -5.55701,10.168937 -5.55701,10.168937 l -1.95578,28.61662 -0.30287,-14.37748 -0.30284,-14.37743 z"
         id="path7188-5"
         inkscape:connector-curvature="0"
         sodipodi:nodetypes="cscccccc" />
      <g
         id="flowRoot7748"
         style="font-size:24px;font-style:normal;font-weight:normal;line-height:125%;letter-spacing:0px;word-spacing:0px;fill:#000000;fill-opacity:1;stroke:none;font-family:Sans"
         transform="matrix(0.58030903,0,0,0.60302056,134.74456,269.4286)">
        <path
           id="path8005"
           d="m 181.94141,-177.26264 -2.09766,0.16406 c -0.18751,-0.82811 -0.45313,-1.42967 -0.79688,-1.80469 -0.57032,-0.60155 -1.27344,-0.90233 -2.10937,-0.90234 -0.67188,1e-5 -1.26172,0.18751 -1.76953,0.5625 -0.66407,0.48439 -1.18751,1.19142 -1.57031,2.12109 -0.38282,0.9297 -0.58204,2.25392 -0.59766,3.97266 0.50781,-0.77343 1.1289,-1.34765 1.86328,-1.72266 0.73437,-0.37499 1.5039,-0.56249 2.30859,-0.5625 1.40625,1e-5 2.60351,0.51759 3.5918,1.55274 0.98827,1.03516 1.48241,2.37305 1.48242,4.01367 -1e-5,1.07813 -0.23243,2.08008 -0.69726,3.00586 -0.46486,0.92578 -1.10353,1.63476 -1.91602,2.12695 -0.81251,0.49219 -1.73438,0.73828 -2.76562,0.73828 -1.75782,0 -3.19141,-0.64648 -4.30078,-1.93945 -1.10938,-1.29297 -1.66407,-3.42382 -1.66407,-6.39258 0,-3.3203 0.61328,-5.73436 1.83985,-7.24219 1.07031,-1.31248 2.51171,-1.96873 4.32422,-1.96875 1.35155,2e-5 2.45897,0.37893 3.32226,1.13672 0.86327,0.75783 1.38085,1.8047 1.55274,3.14063 z m -8.61329,7.40625 c 0,0.72656 0.1543,1.42188 0.4629,2.08593 0.30859,0.66407 0.74023,1.16993 1.29492,1.51758 0.55468,0.34766 1.13671,0.52149 1.74609,0.52149 0.89062,0 1.65624,-0.35938 2.29688,-1.07813 0.64061,-0.71874 0.96092,-1.69531 0.96093,-2.92969 -1e-5,-1.18749 -0.31641,-2.12303 -0.94922,-2.80664 -0.63282,-0.68358 -1.42969,-1.02538 -2.39062,-1.02539 -0.95313,10e-6 -1.76172,0.34181 -2.42578,1.02539 -0.66407,0.68361 -0.9961,1.58009 -0.9961,2.68946 z"
           inkscape:connector-curvature="0" />
        <path
           id="path8007"
           d="m 184.35547,-172.76264 c 0,-2.03124 0.20898,-3.66601 0.62695,-4.9043 0.41797,-1.23827 1.03906,-2.19334 1.86328,-2.86523 0.82422,-0.67186 1.86133,-1.0078 3.11133,-1.00782 0.92187,2e-5 1.73046,0.18557 2.42578,0.55664 0.69531,0.37111 1.26952,0.90627 1.72266,1.60547 0.45311,0.69924 0.80858,1.5508 1.0664,2.55469 0.25781,1.00392 0.38671,2.35743 0.38672,4.06055 -1e-5,2.01563 -0.20704,3.64258 -0.62109,4.88086 -0.41407,1.23828 -1.03321,2.19531 -1.85742,2.87109 -0.82423,0.67578 -1.86524,1.01367 -3.12305,1.01367 -1.65625,0 -2.95703,-0.59375 -3.90234,-1.78125 -1.13282,-1.42968 -1.69922,-3.75781 -1.69922,-6.98437 z m 2.16797,0 c -1e-5,2.82032 0.33007,4.69727 0.99023,5.63086 0.66015,0.93359 1.47461,1.40039 2.44336,1.40039 0.96874,0 1.7832,-0.46875 2.44336,-1.40625 0.66015,-0.9375 0.99022,-2.8125 0.99023,-5.625 -1e-5,-2.82812 -0.33008,-4.70702 -0.99023,-5.63672 -0.66016,-0.92967 -1.48243,-1.39452 -2.4668,-1.39453 -0.96875,1e-5 -1.74219,0.41017 -2.32031,1.23047 -0.72656,1.04688 -1.08985,2.98048 -1.08984,5.80078 z"
           inkscape:connector-curvature="0" />
      </g>
      <g
         id="g7410"
         transform="matrix(0.58030903,0,0,0.60302056,53.132429,-30.353635)">
        <g
           id="g7404"
           transform="matrix(1.976899,0,0,1.7403785,1202.5719,5282.7727)">
          <path
             sodipodi:nodetypes="cccsccsccsccs"
             inkscape:connector-curvature="0"
             id="path7406"
             d="m -391.91613,-2969.6358 -20.80137,0 0.39368,14.2797 c 0,0 2.13916,14.1132 4.73927,17.2352 2.31704,2.7821 6.91724,2.7562 11.3868,1.2617 4.37163,-2.9861 4.28162,-32.7766 4.28162,-32.7766 z m -14.93921,32.1896 c -3.54864,-3.6467 -5.44568,-17.8687 -5.44568,-17.8687 l 0.29114,-13.4596 c 0,0 4.68469,3.3936 9.71679,3.9475 5.48578,0.6039 10.34035,-4.317 10.34035,-4.317 0,0 0.38086,31.8702 -5.17985,32.6046 -6.12058,1.4195 -8.32714,0.5274 -9.72275,-0.9068 z"
             style="fill:#000000;fill-opacity:0.97692303;stroke:#000000;stroke-width:0.91135639px;stroke-linecap:square;stroke-linejoin:miter;stroke-opacity:1" />
        </g>
        <path
           sodipodi:nodetypes="cscccscc"
           inkscape:connector-curvature="0"
           id="path7408"
           d="m 412.37333,147.11801 c 1.19074,-1.6025 0.17807,-4.1731 -0.81253,-5.75307 -0.57165,-0.91178 -6.00664,-4.52115 -9.16032,1.37676 -2.50925,5.3005 7.61203,8.66132 9.97285,4.37631 z m -11.37227,-5.19607 c 1.60607,-6.90414 8.83893,-6.57725 11.7327,-2.45699 1.38217,1.96798 1.7671,4.8885 0.1576,7.01081 -2.93032,5.89786 -12.21102,1.6383 -11.8903,-4.55382 z"
           style="fill:#000000;fill-opacity:1;stroke:#000000;stroke-width:1.69045711px;stroke-linecap:butt;stroke-linejoin:miter;stroke-opacity:1" />
      </g>
      <g
         id="g7477"
         transform="matrix(0.58030903,0,0,0.60302056,55.975241,-30.140521)">
        <path
           style="fill:none;stroke:#000000;stroke-width:2.02854919;stroke-linecap:butt;stroke-linejoin:miter;stroke-miterlimit:10;stroke-opacity:1;stroke-dasharray:none"
           d="m 385.77428,212.03737 c 0,0 11.37651,2.49999 11.94684,2.26338 l 13.41348,-5.56456 c -3.44493,5.73516 -9.57595,16.86333 -9.57595,16.86333 l -3.37024,47.45546 -0.52191,-23.84243 -0.52187,-23.84236 z"
           id="path7415"
           inkscape:connector-curvature="0"
           sodipodi:nodetypes="cscccccc" />
        <path
           style="fill:none;stroke:#000000;stroke-width:1.69045758px;stroke-linecap:butt;stroke-linejoin:miter;stroke-opacity:1"
           d="m 410.11615,241.84398 1.76494,1.98578 7.11171,8.14935 -7.11794,-4.41328 -4.55114,-3.46648 -5.67953,-0.79367 6.16306,-3.36075 9.2951,-10.13287 z"
           id="path7445"
           inkscape:connector-curvature="0"
           sodipodi:nodetypes="ccccccccc" />
      </g>
      <g
         id="flowRoot7756"
         style="font-size:24px;font-style:normal;font-weight:normal;line-height:125%;letter-spacing:0px;word-spacing:0px;fill:#000000;fill-opacity:1;stroke:none;font-family:Sans"
         transform="matrix(0.58030903,0,0,0.60302056,126.43833,273.04672)">
        <path
           id="path7998"
           d="m 272.94141,-183.26264 -2.09766,0.16406 c -0.18751,-0.82811 -0.45313,-1.42967 -0.79688,-1.80469 -0.57032,-0.60155 -1.27344,-0.90233 -2.10937,-0.90234 -0.67188,1e-5 -1.26172,0.18751 -1.76953,0.5625 -0.66407,0.48439 -1.18751,1.19142 -1.57031,2.12109 -0.38282,0.9297 -0.58204,2.25392 -0.59766,3.97266 0.50781,-0.77343 1.1289,-1.34765 1.86328,-1.72266 0.73437,-0.37499 1.5039,-0.56249 2.30859,-0.5625 1.40625,1e-5 2.60351,0.51759 3.5918,1.55274 0.98827,1.03516 1.48241,2.37305 1.48242,4.01367 -10e-6,1.07813 -0.23243,2.08008 -0.69726,3.00586 -0.46486,0.92578 -1.10353,1.63476 -1.91602,2.12695 -0.81251,0.49219 -1.73438,0.73828 -2.76562,0.73828 -1.75782,0 -3.19141,-0.64648 -4.30078,-1.93945 -1.10938,-1.29297 -1.66407,-3.42382 -1.66407,-6.39258 0,-3.3203 0.61328,-5.73436 1.83985,-7.24219 1.07031,-1.31248 2.51171,-1.96873 4.32422,-1.96875 1.35155,2e-5 2.45897,0.37893 3.32226,1.13672 0.86327,0.75783 1.38085,1.8047 1.55274,3.14063 z m -8.61329,7.40625 c 0,0.72656 0.1543,1.42188 0.4629,2.08593 0.30859,0.66407 0.74023,1.16993 1.29492,1.51758 0.55468,0.34766 1.13671,0.52149 1.74609,0.52149 0.89062,0 1.65624,-0.35938 2.29688,-1.07813 0.64061,-0.71874 0.96092,-1.69531 0.96093,-2.92969 -10e-6,-1.18749 -0.31641,-2.12303 -0.94922,-2.80664 -0.63282,-0.68358 -1.42969,-1.02538 -2.39062,-1.02539 -0.95313,10e-6 -1.76172,0.34181 -2.42578,1.02539 -0.66407,0.68361 -0.9961,1.58009 -0.9961,2.68946 z"
           inkscape:connector-curvature="0" />
        <path
           id="path8000"
           d="m 275.35547,-178.76264 c 0,-2.03124 0.20898,-3.66601 0.62695,-4.9043 0.41797,-1.23827 1.03906,-2.19334 1.86328,-2.86523 0.82422,-0.67186 1.86133,-1.0078 3.11133,-1.00782 0.92187,2e-5 1.73046,0.18557 2.42578,0.55664 0.69531,0.37111 1.26952,0.90627 1.72266,1.60547 0.45311,0.69924 0.80858,1.5508 1.0664,2.55469 0.25781,1.00392 0.38671,2.35743 0.38672,4.06055 -10e-6,2.01563 -0.20704,3.64258 -0.62109,4.88086 -0.41407,1.23828 -1.03321,2.19531 -1.85742,2.87109 -0.82423,0.67578 -1.86524,1.01367 -3.12305,1.01367 -1.65625,0 -2.95703,-0.59375 -3.90234,-1.78125 -1.13282,-1.42968 -1.69922,-3.75781 -1.69922,-6.98437 z m 2.16797,0 c -10e-6,2.82032 0.33007,4.69727 0.99023,5.63086 0.66015,0.93359 1.47461,1.40039 2.44336,1.40039 0.96874,0 1.7832,-0.46875 2.44336,-1.40625 0.66015,-0.9375 0.99022,-2.8125 0.99023,-5.625 -1e-5,-2.82812 -0.33008,-4.70702 -0.99023,-5.63672 -0.66016,-0.92967 -1.48243,-1.39452 -2.4668,-1.39453 -0.96875,1e-5 -1.74219,0.41017 -2.32031,1.23047 -0.72656,1.04688 -1.08985,2.98048 -1.08984,5.80078 z"
           inkscape:connector-curvature="0" />
        <path
           id="path8002"
           d="m 288.71484,-178.76264 c 0,-2.03124 0.20899,-3.66601 0.62696,-4.9043 0.41796,-1.23827 1.03906,-2.19334 1.86328,-2.86523 0.82421,-0.67186 1.86132,-1.0078 3.11133,-1.00782 0.92186,2e-5 1.73046,0.18557 2.42578,0.55664 0.6953,0.37111 1.26952,0.90627 1.72265,1.60547 0.45312,0.69924 0.80859,1.5508 1.06641,2.55469 0.2578,1.00392 0.38671,2.35743 0.38672,4.06055 -1e-5,2.01563 -0.20704,3.64258 -0.6211,4.88086 -0.41407,1.23828 -1.03321,2.19531 -1.85742,2.87109 -0.82422,0.67578 -1.86524,1.01367 -3.12304,1.01367 -1.65626,0 -2.95704,-0.59375 -3.90235,-1.78125 -1.13281,-1.42968 -1.69922,-3.75781 -1.69922,-6.98437 z m 2.16797,0 c 0,2.82032 0.33008,4.69727 0.99024,5.63086 0.66015,0.93359 1.4746,1.40039 2.44336,1.40039 0.96874,0 1.78319,-0.46875 2.44336,-1.40625 0.66014,-0.9375 0.99022,-2.8125 0.99023,-5.625 -10e-6,-2.82812 -0.33009,-4.70702 -0.99023,-5.63672 -0.66017,-0.92967 -1.48243,-1.39452 -2.4668,-1.39453 -0.96876,1e-5 -1.74219,0.41017 -2.32031,1.23047 -0.72657,1.04688 -1.08985,2.98048 -1.08985,5.80078 z"
           inkscape:connector-curvature="0" />
      </g>
      <path
         sodipodi:nodetypes="cscccscc"
         inkscape:connector-curvature="0"
         id="path4147"
         d="m 345.10487,62.915025 c 1.76574,-2.470847 0.26406,-6.434362 -1.20489,-8.870469 -0.8477,-1.405834 -8.9072,-6.970996 -13.58376,2.122783 -3.72094,8.172659 11.28781,13.354578 14.78865,6.747686 z m -16.86382,-8.011653 c 2.38161,-10.645249 13.10716,-10.141232 17.3983,-3.78835 2.0496,3.034369 2.62042,7.537443 0.2337,10.809746 -4.34535,9.093695 -18.10762,2.526035 -17.632,-7.021396 z"
         style="fill:#000000;fill-opacity:1;stroke:#000000;stroke-width:0.99999964px;stroke-linecap:butt;stroke-linejoin:miter;stroke-opacity:1" />
      <g
         id="g7427"
         transform="matrix(0.45819614,0,0,0.47612855,211.05238,-54.950873)">
        <path
           style="fill:none;stroke:#000000;stroke-width:2.56917334;stroke-linecap:butt;stroke-linejoin:miter;stroke-miterlimit:10;stroke-opacity:1;stroke-dasharray:none"
           d="m 251.18921,366.18392 c 0,0 5.97484,-3.64529 6.12067,-3.9872 l 3.42993,-8.04112 c 0.94767,3.95871 3.02545,11.40918 3.02545,11.40918 l 18.69655,22.27366 -10.35014,-10.2668 -10.35009,-10.26681 z"
           id="path7419"
           inkscape:connector-curvature="0"
           sodipodi:nodetypes="cscccccc" />
        <path
           sodipodi:nodetypes="cscccccc"
           inkscape:connector-curvature="0"
           id="path7421"
           d="m 251.18921,345.81012 c 0,0 5.97484,3.64529 6.12067,3.9872 l 3.42993,8.04112 c 0.94767,-3.95871 3.02545,-11.40918 3.02545,-11.40918 l 18.69655,-22.27366 -10.35014,10.2668 -10.35009,10.26681 z"
           style="fill:none;stroke:#000000;stroke-width:2.56917334;stroke-linecap:butt;stroke-linejoin:miter;stroke-miterlimit:10;stroke-opacity:1;stroke-dasharray:none" />
        <path
           style="fill:none;stroke:#000000;stroke-width:2.56917334;stroke-linecap:butt;stroke-linejoin:miter;stroke-miterlimit:10;stroke-opacity:1;stroke-dasharray:none"
           d="m 274.21637,330.39456 c 0,0 6.42403,-2.7783 6.61603,-3.09656 l 4.51564,-7.48553 c 0.38752,4.05207 1.40815,11.71921 1.40815,11.71921 l 15.41473,24.65897 -8.82057,-11.60737 -8.8205,-11.60733 z"
           id="path7423"
           inkscape:connector-curvature="0"
           sodipodi:nodetypes="cscccccc" />
        <path
           sodipodi:nodetypes="cscccccc"
           inkscape:connector-curvature="0"
           id="path7425"
           d="m 277.08809,385.22151 c 0,0 6.67925,2.09159 6.90346,2.38803 l 5.27336,6.97251 c -0.0382,-4.07037 0.17544,-11.8022 0.17544,-11.8022 l 12.75272,-26.13516 -7.55895,12.46578 -7.55888,12.46574 z"
           style="fill:none;stroke:#000000;stroke-width:2.56917334;stroke-linecap:butt;stroke-linejoin:miter;stroke-miterlimit:10;stroke-opacity:1;stroke-dasharray:none" />
      </g>
      <g
         id="flowRoot7764"
         style="font-size:24px;font-style:normal;font-weight:normal;line-height:125%;letter-spacing:0px;word-spacing:0px;fill:#000000;fill-opacity:1;stroke:none;font-family:Sans"
         transform="matrix(0.58030903,0,0,0.60302056,113.45901,270.62757)">
        <path
           id="path7989"
           d="m 361.00781,-170.82514 2.10938,-0.28125 c 0.24218,1.19531 0.65429,2.05664 1.23633,2.58398 0.58202,0.52735 1.29101,0.79102 2.12695,0.79102 0.99218,0 1.83007,-0.34375 2.51367,-1.03125 0.68358,-0.6875 1.02538,-1.53906 1.02539,-2.55469 -10e-6,-0.96874 -0.31641,-1.76757 -0.94922,-2.39648 -0.63282,-0.6289 -1.43751,-0.94336 -2.41406,-0.94336 -0.39844,0 -0.89454,0.0781 -1.48828,0.23437 l 0.23437,-1.85156 c 0.14062,0.0156 0.2539,0.0234 0.33985,0.0234 0.89843,1e-5 1.70702,-0.23437 2.42578,-0.70313 0.71874,-0.46874 1.07811,-1.19139 1.07812,-2.16797 -10e-6,-0.77342 -0.26172,-1.41405 -0.78515,-1.92187 -0.52345,-0.5078 -1.19923,-0.76171 -2.02735,-0.76172 -0.82031,1e-5 -1.50391,0.25783 -2.05078,0.77344 -0.54688,0.51564 -0.89844,1.28907 -1.05469,2.32031 l -2.10937,-0.375 c 0.25781,-1.41405 0.84375,-2.50975 1.75781,-3.28711 0.91406,-0.77733 2.05078,-1.166 3.41016,-1.16602 0.93749,2e-5 1.80077,0.20119 2.58984,0.60352 0.78906,0.40236 1.39257,0.95119 1.81055,1.64648 0.41796,0.69533 0.62694,1.43361 0.62695,2.21485 -1e-5,0.7422 -0.19923,1.41798 -0.59765,2.02734 -0.39845,0.60939 -0.98829,1.09376 -1.76954,1.45313 1.01562,0.23438 1.80468,0.72071 2.36719,1.45898 0.56249,0.73829 0.84374,1.66212 0.84375,2.77148 -1e-5,1.50001 -0.54688,2.77149 -1.64062,3.81446 -1.09376,1.04297 -2.47657,1.56445 -4.14844,1.56445 -1.50782,0 -2.75977,-0.44922 -3.75586,-1.34766 -0.99609,-0.89843 -1.56445,-2.06249 -1.70508,-3.49218 z"
           inkscape:connector-curvature="0" />
        <path
           id="path7991"
           d="m 385.30078,-179.26264 -2.09766,0.16406 c -0.1875,-0.82811 -0.45313,-1.42967 -0.79687,-1.80469 -0.57032,-0.60155 -1.27345,-0.90233 -2.10938,-0.90234 -0.67188,1e-5 -1.26172,0.18751 -1.76953,0.5625 -0.66406,0.48439 -1.1875,1.19142 -1.57031,2.12109 -0.38281,0.9297 -0.58203,2.25392 -0.59766,3.97266 0.50781,-0.77343 1.12891,-1.34765 1.86329,-1.72266 0.73437,-0.37499 1.5039,-0.56249 2.30859,-0.5625 1.40624,1e-5 2.60351,0.51759 3.5918,1.55274 0.98827,1.03516 1.48241,2.37305 1.48242,4.01367 -1e-5,1.07813 -0.23244,2.08008 -0.69727,3.00586 -0.46485,0.92578 -1.10352,1.63476 -1.91601,2.12695 -0.81251,0.49219 -1.73439,0.73828 -2.76563,0.73828 -1.75782,0 -3.19141,-0.64648 -4.30078,-1.93945 -1.10938,-1.29297 -1.66406,-3.42382 -1.66406,-6.39258 0,-3.3203 0.61328,-5.73436 1.83984,-7.24219 1.07031,-1.31248 2.51172,-1.96873 4.32422,-1.96875 1.35156,2e-5 2.45898,0.37893 3.32227,1.13672 0.86327,0.75783 1.38084,1.8047 1.55273,3.14063 z m -8.61328,7.40625 c 0,0.72656 0.15429,1.42188 0.46289,2.08593 0.30859,0.66407 0.74023,1.16993 1.29492,1.51758 0.55468,0.34766 1.13672,0.52149 1.7461,0.52149 0.89061,0 1.65624,-0.35938 2.29687,-1.07813 0.64062,-0.71874 0.96093,-1.69531 0.96094,-2.92969 -1e-5,-1.18749 -0.31642,-2.12303 -0.94922,-2.80664 -0.63282,-0.68358 -1.4297,-1.02538 -2.39063,-1.02539 -0.95313,10e-6 -1.76172,0.34181 -2.42578,1.02539 -0.66406,0.68361 -0.99609,1.58009 -0.99609,2.68946 z"
           inkscape:connector-curvature="0" />
        <path
           id="path7993"
           d="m 387.71484,-174.76264 c 0,-2.03124 0.20899,-3.66601 0.62696,-4.9043 0.41796,-1.23827 1.03906,-2.19334 1.86328,-2.86523 0.82421,-0.67186 1.86132,-1.0078 3.11133,-1.00782 0.92186,2e-5 1.73046,0.18557 2.42578,0.55664 0.6953,0.37111 1.26952,0.90627 1.72265,1.60547 0.45312,0.69924 0.80859,1.5508 1.06641,2.55469 0.2578,1.00392 0.38671,2.35743 0.38672,4.06055 -1e-5,2.01563 -0.20704,3.64258 -0.6211,4.88086 -0.41407,1.23828 -1.03321,2.19531 -1.85742,2.87109 -0.82422,0.67578 -1.86524,1.01367 -3.12304,1.01367 -1.65626,0 -2.95704,-0.59375 -3.90235,-1.78125 -1.13281,-1.42968 -1.69922,-3.75781 -1.69922,-6.98437 z m 2.16797,0 c 0,2.82032 0.33008,4.69727 0.99024,5.63086 0.66015,0.93359 1.4746,1.40039 2.44336,1.40039 0.96874,0 1.78319,-0.46875 2.44336,-1.40625 0.66014,-0.9375 0.99022,-2.8125 0.99023,-5.625 -10e-6,-2.82812 -0.33009,-4.70702 -0.99023,-5.63672 -0.66017,-0.92967 -1.48243,-1.39452 -2.4668,-1.39453 -0.96876,1e-5 -1.74219,0.41017 -2.32031,1.23047 -0.72657,1.04688 -1.08985,2.98048 -1.08985,5.80078 z"
           inkscape:connector-curvature="0" />
        <path
           id="path7995"
           d="m 401.07422,-174.76264 c 0,-2.03124 0.20898,-3.66601 0.62695,-4.9043 0.41797,-1.23827 1.03906,-2.19334 1.86328,-2.86523 0.82422,-0.67186 1.86133,-1.0078 3.11133,-1.00782 0.92187,2e-5 1.73046,0.18557 2.42578,0.55664 0.69531,0.37111 1.26952,0.90627 1.72266,1.60547 0.45311,0.69924 0.80858,1.5508 1.0664,2.55469 0.25781,1.00392 0.38671,2.35743 0.38672,4.06055 -10e-6,2.01563 -0.20704,3.64258 -0.62109,4.88086 -0.41407,1.23828 -1.03321,2.19531 -1.85742,2.87109 -0.82423,0.67578 -1.86524,1.01367 -3.12305,1.01367 -1.65625,0 -2.95703,-0.59375 -3.90234,-1.78125 -1.13282,-1.42968 -1.69922,-3.75781 -1.69922,-6.98437 z m 2.16797,0 c -10e-6,2.82032 0.33007,4.69727 0.99023,5.63086 0.66015,0.93359 1.47461,1.40039 2.44336,1.40039 0.96874,0 1.7832,-0.46875 2.44336,-1.40625 0.66015,-0.9375 0.99022,-2.8125 0.99023,-5.625 -1e-5,-2.82812 -0.33008,-4.70702 -0.99023,-5.63672 -0.66016,-0.92967 -1.48243,-1.39452 -2.4668,-1.39453 -0.96875,1e-5 -1.74219,0.41017 -2.32031,1.23047 -0.72656,1.04688 -1.08985,2.98048 -1.08984,5.80078 z"
           inkscape:connector-curvature="0" />
      </g>
      <g
         id="g6449"
         transform="matrix(0.58030903,0,0,0.60302056,95.385382,-12.678234)">
        <path
           sodipodi:nodetypes="cscccscc"
           inkscape:connector-curvature="0"
           id="path6445"
           d="m 504.99068,121.443 c 1.19074,-1.6025 0.17807,-4.1731 -0.81253,-5.75307 -0.57165,-0.91178 -6.00664,-4.52115 -9.16032,1.37676 -2.50925,5.3005 7.61203,8.66132 9.97285,4.37631 z m -11.37227,-5.19607 c 1.60607,-6.90414 8.83893,-6.57725 11.7327,-2.45699 1.38217,1.96798 1.7671,4.8885 0.1576,7.01081 -2.93032,5.89786 -12.21102,1.6383 -11.8903,-4.55382 z"
           style="fill:#000000;fill-opacity:1;stroke:#000000;stroke-width:1.69045711px;stroke-linecap:butt;stroke-linejoin:miter;stroke-opacity:1" />
        <path
           sodipodi:nodetypes="cscccscc"
           inkscape:connector-curvature="0"
           id="path6447"
           d="m 513.68778,125.35768 c 3.04277,-4.09745 0.45504,-10.67022 -2.07628,-14.71006 -1.46078,-2.33132 -15.34907,-11.560131 -23.40781,3.52025 -6.412,13.55287 19.45139,22.14614 25.48409,11.18981 z m -29.06006,-13.28587 c 4.10404,-17.653206 22.58651,-16.817389 29.98109,-6.28229 3.53192,5.03195 4.51556,12.49948 0.40272,17.926 -7.48799,15.08024 -31.2034,4.18897 -30.38381,-11.64371 z"
           style="fill:#000000;fill-opacity:1;stroke:#000000;stroke-width:1.69045699px;stroke-linecap:butt;stroke-linejoin:miter;stroke-opacity:1" />
      </g>
      <g
         id="g7469"
         transform="matrix(0.58030903,0,0,0.60302056,80.855896,-27.310576)">
        <g
           id="g7433"
           transform="matrix(0.78957266,0,0,0.78957266,307.72338,-45.836411)">
          <path
             style="fill:none;stroke:#000000;stroke-width:2.56917334;stroke-linecap:butt;stroke-linejoin:miter;stroke-miterlimit:10;stroke-opacity:1;stroke-dasharray:none"
             d="m 251.18921,366.18392 c 0,0 5.97484,-3.64529 6.12067,-3.9872 l 3.42993,-8.04112 c 0.94767,3.95871 3.02545,11.40918 3.02545,11.40918 l 18.69655,22.27366 -10.35014,-10.2668 -10.35009,-10.26681 z"
             id="path7435"
             inkscape:connector-curvature="0"
             sodipodi:nodetypes="cscccccc" />
          <path
             sodipodi:nodetypes="cscccccc"
             inkscape:connector-curvature="0"
             id="path7437"
             d="m 251.18921,345.81012 c 0,0 5.97484,3.64529 6.12067,3.9872 l 3.42993,8.04112 c 0.94767,-3.95871 3.02545,-11.40918 3.02545,-11.40918 l 18.69655,-22.27366 -10.35014,10.2668 -10.35009,10.26681 z"
             style="fill:none;stroke:#000000;stroke-width:2.56917334;stroke-linecap:butt;stroke-linejoin:miter;stroke-miterlimit:10;stroke-opacity:1;stroke-dasharray:none" />
          <path
             style="fill:none;stroke:#000000;stroke-width:2.56917334;stroke-linecap:butt;stroke-linejoin:miter;stroke-miterlimit:10;stroke-opacity:1;stroke-dasharray:none"
             d="m 274.21637,330.39456 c 0,0 6.42403,-2.7783 6.61603,-3.09656 l 4.51564,-7.48553 c 0.38752,4.05207 1.40815,11.71921 1.40815,11.71921 l 15.41473,24.65897 -8.82057,-11.60737 -8.8205,-11.60733 z"
             id="path7439"
             inkscape:connector-curvature="0"
             sodipodi:nodetypes="cscccccc" />
          <path
             sodipodi:nodetypes="cscccccc"
             inkscape:connector-curvature="0"
             id="path7441"
             d="m 277.08809,385.22151 c 0,0 6.67925,2.09159 6.90346,2.38803 l 5.27336,6.97251 c -0.0382,-4.07037 0.17544,-11.8022 0.17544,-11.8022 l 12.75272,-26.13516 -7.55895,12.46578 -7.55888,12.46574 z"
             style="fill:none;stroke:#000000;stroke-width:2.56917334;stroke-linecap:butt;stroke-linejoin:miter;stroke-miterlimit:10;stroke-opacity:1;stroke-dasharray:none" />
        </g>
        <path
           sodipodi:nodetypes="ccccccccc"
           inkscape:connector-curvature="0"
           id="path7447"
           d="m 526.03544,236.92909 1.35801,1.53335 5.47199,6.29265 -5.47679,-3.40778 -3.5018,-2.6767 -4.37002,-0.61284 4.74207,-2.59506 7.15196,-7.82425 z"
           style="fill:none;stroke:#000000;stroke-width:1.69045746px;stroke-linecap:butt;stroke-linejoin:miter;stroke-opacity:1" />
      </g>
      <g
         id="flowRoot7772"
         style="font-size:24px;font-style:normal;font-weight:normal;line-height:125%;letter-spacing:0px;word-spacing:0px;fill:#000000;fill-opacity:1;stroke:none;font-family:Sans"
         transform="matrix(0.58030903,0,0,0.60302056,101.67093,269.42153)">
        <path
           id="path7978"
           d="m 458.00781,-168.82514 2.10938,-0.28125 c 0.24218,1.19531 0.65429,2.05664 1.23633,2.58398 0.58202,0.52735 1.29101,0.79102 2.12695,0.79102 0.99218,0 1.83007,-0.34375 2.51367,-1.03125 0.68358,-0.6875 1.02538,-1.53906 1.02539,-2.55469 -10e-6,-0.96874 -0.31641,-1.76757 -0.94922,-2.39648 -0.63282,-0.6289 -1.43751,-0.94336 -2.41406,-0.94336 -0.39844,0 -0.89454,0.0781 -1.48828,0.23437 l 0.23437,-1.85156 c 0.14062,0.0156 0.2539,0.0234 0.33985,0.0234 0.89843,1e-5 1.70702,-0.23437 2.42578,-0.70313 0.71874,-0.46874 1.07811,-1.19139 1.07812,-2.16797 -10e-6,-0.77342 -0.26172,-1.41405 -0.78515,-1.92187 -0.52345,-0.5078 -1.19923,-0.76171 -2.02735,-0.76172 -0.82031,1e-5 -1.50391,0.25783 -2.05078,0.77344 -0.54688,0.51564 -0.89844,1.28907 -1.05469,2.32031 l -2.10937,-0.375 c 0.25781,-1.41405 0.84375,-2.50975 1.75781,-3.28711 0.91406,-0.77733 2.05078,-1.166 3.41016,-1.16602 0.93749,2e-5 1.80077,0.20119 2.58984,0.60352 0.78906,0.40236 1.39257,0.95119 1.81055,1.64648 0.41796,0.69533 0.62694,1.43361 0.62695,2.21485 -1e-5,0.7422 -0.19923,1.41798 -0.59765,2.02734 -0.39845,0.60939 -0.98829,1.09376 -1.76954,1.45313 1.01562,0.23438 1.80468,0.72071 2.36719,1.45898 0.56249,0.73829 0.84374,1.66212 0.84375,2.77148 -1e-5,1.50001 -0.54688,2.77149 -1.64062,3.81446 -1.09376,1.04297 -2.47657,1.56445 -4.14844,1.56445 -1.50782,0 -2.75977,-0.44922 -3.75586,-1.34766 -0.99609,-0.89843 -1.56445,-2.06249 -1.70508,-3.49218 z"
           inkscape:connector-curvature="0" />
        <path
           id="path7980"
           d="m 482.30078,-177.26264 -2.09766,0.16406 c -0.1875,-0.82811 -0.45313,-1.42967 -0.79687,-1.80469 -0.57032,-0.60155 -1.27345,-0.90233 -2.10938,-0.90234 -0.67188,1e-5 -1.26172,0.18751 -1.76953,0.5625 -0.66406,0.48439 -1.1875,1.19142 -1.57031,2.12109 -0.38281,0.9297 -0.58203,2.25392 -0.59766,3.97266 0.50781,-0.77343 1.12891,-1.34765 1.86329,-1.72266 0.73437,-0.37499 1.5039,-0.56249 2.30859,-0.5625 1.40624,1e-5 2.60351,0.51759 3.5918,1.55274 0.98827,1.03516 1.48241,2.37305 1.48242,4.01367 -1e-5,1.07813 -0.23244,2.08008 -0.69727,3.00586 -0.46485,0.92578 -1.10352,1.63476 -1.91601,2.12695 -0.81251,0.49219 -1.73439,0.73828 -2.76563,0.73828 -1.75782,0 -3.19141,-0.64648 -4.30078,-1.93945 -1.10938,-1.29297 -1.66406,-3.42382 -1.66406,-6.39258 0,-3.3203 0.61328,-5.73436 1.83984,-7.24219 1.07031,-1.31248 2.51172,-1.96873 4.32422,-1.96875 1.35156,2e-5 2.45898,0.37893 3.32227,1.13672 0.86327,0.75783 1.38084,1.8047 1.55273,3.14063 z m -8.61328,7.40625 c 0,0.72656 0.15429,1.42188 0.46289,2.08593 0.30859,0.66407 0.74023,1.16993 1.29492,1.51758 0.55468,0.34766 1.13672,0.52149 1.7461,0.52149 0.89061,0 1.65624,-0.35938 2.29687,-1.07813 0.64062,-0.71874 0.96093,-1.69531 0.96094,-2.92969 -1e-5,-1.18749 -0.31642,-2.12303 -0.94922,-2.80664 -0.63282,-0.68358 -1.4297,-1.02538 -2.39063,-1.02539 -0.95313,10e-6 -1.76172,0.34181 -2.42578,1.02539 -0.66406,0.68361 -0.99609,1.58009 -0.99609,2.68946 z"
           inkscape:connector-curvature="0" />
        <path
           id="path7982"
           d="m 484.71484,-172.76264 c 0,-2.03124 0.20899,-3.66601 0.62696,-4.9043 0.41796,-1.23827 1.03906,-2.19334 1.86328,-2.86523 0.82421,-0.67186 1.86132,-1.0078 3.11133,-1.00782 0.92186,2e-5 1.73046,0.18557 2.42578,0.55664 0.6953,0.37111 1.26952,0.90627 1.72265,1.60547 0.45312,0.69924 0.80859,1.5508 1.06641,2.55469 0.2578,1.00392 0.38671,2.35743 0.38672,4.06055 -1e-5,2.01563 -0.20704,3.64258 -0.6211,4.88086 -0.41407,1.23828 -1.03321,2.19531 -1.85742,2.87109 -0.82422,0.67578 -1.86524,1.01367 -3.12304,1.01367 -1.65626,0 -2.95704,-0.59375 -3.90235,-1.78125 -1.13281,-1.42968 -1.69922,-3.75781 -1.69922,-6.98437 z m 2.16797,0 c 0,2.82032 0.33008,4.69727 0.99024,5.63086 0.66015,0.93359 1.4746,1.40039 2.44336,1.40039 0.96874,0 1.78319,-0.46875 2.44336,-1.40625 0.66014,-0.9375 0.99022,-2.8125 0.99023,-5.625 -10e-6,-2.82812 -0.33009,-4.70702 -0.99023,-5.63672 -0.66017,-0.92967 -1.48243,-1.39452 -2.4668,-1.39453 -0.96876,1e-5 -1.74219,0.41017 -2.32031,1.23047 -0.72657,1.04688 -1.08985,2.98048 -1.08985,5.80078 z"
           inkscape:connector-curvature="0" />
        <path
           id="path7984"
           d="m 498.07422,-172.76264 c 0,-2.03124 0.20898,-3.66601 0.62695,-4.9043 0.41797,-1.23827 1.03906,-2.19334 1.86328,-2.86523 0.82422,-0.67186 1.86133,-1.0078 3.11133,-1.00782 0.92187,2e-5 1.73046,0.18557 2.42578,0.55664 0.69531,0.37111 1.26952,0.90627 1.72266,1.60547 0.45311,0.69924 0.80858,1.5508 1.0664,2.55469 0.25781,1.00392 0.38671,2.35743 0.38672,4.06055 -10e-6,2.01563 -0.20704,3.64258 -0.62109,4.88086 -0.41407,1.23828 -1.03321,2.19531 -1.85742,2.87109 -0.82423,0.67578 -1.86524,1.01367 -3.12305,1.01367 -1.65625,0 -2.95703,-0.59375 -3.90234,-1.78125 -1.13282,-1.42968 -1.69922,-3.75781 -1.69922,-6.98437 z m 2.16797,0 c -10e-6,2.82032 0.33007,4.69727 0.99023,5.63086 0.66015,0.93359 1.47461,1.40039 2.44336,1.40039 0.96874,0 1.7832,-0.46875 2.44336,-1.40625 0.66015,-0.9375 0.99022,-2.8125 0.99023,-5.625 -1e-5,-2.82812 -0.33008,-4.70702 -0.99023,-5.63672 -0.66016,-0.92967 -1.48243,-1.39452 -2.4668,-1.39453 -0.96875,1e-5 -1.74219,0.41017 -2.32031,1.23047 -0.72656,1.04688 -1.08985,2.98048 -1.08984,5.80078 z"
           inkscape:connector-curvature="0" />
        <path
           id="path7986"
           d="m 511.43359,-172.76264 c 0,-2.03124 0.20899,-3.66601 0.62696,-4.9043 0.41796,-1.23827 1.03906,-2.19334 1.86328,-2.86523 0.82421,-0.67186 1.86132,-1.0078 3.11133,-1.00782 0.92186,2e-5 1.73046,0.18557 2.42578,0.55664 0.6953,0.37111 1.26952,0.90627 1.72265,1.60547 0.45312,0.69924 0.80859,1.5508 1.06641,2.55469 0.2578,1.00392 0.38671,2.35743 0.38672,4.06055 -10e-6,2.01563 -0.20704,3.64258 -0.6211,4.88086 -0.41407,1.23828 -1.03321,2.19531 -1.85742,2.87109 -0.82422,0.67578 -1.86524,1.01367 -3.12304,1.01367 -1.65626,0 -2.95704,-0.59375 -3.90235,-1.78125 -1.13281,-1.42968 -1.69922,-3.75781 -1.69922,-6.98437 z m 2.16797,0 c 0,2.82032 0.33008,4.69727 0.99024,5.63086 0.66015,0.93359 1.4746,1.40039 2.44336,1.40039 0.96874,0 1.78319,-0.46875 2.44336,-1.40625 0.66014,-0.9375 0.99022,-2.8125 0.99023,-5.625 -10e-6,-2.82812 -0.33009,-4.70702 -0.99023,-5.63672 -0.66017,-0.92967 -1.48243,-1.39452 -2.4668,-1.39453 -0.96876,1e-5 -1.74219,0.41017 -2.32031,1.23047 -0.72657,1.04688 -1.08985,2.98048 -1.08985,5.80078 z"
           inkscape:connector-curvature="0" />
      </g>
      <g
         id="g7461"
         transform="matrix(0.58030903,0,0,0.60302056,107.06565,-27.310727)">
        <g
           id="g7449"
           transform="matrix(0.78957266,0,0,0.78957266,361.72338,-45.836411)">
          <path
             style="fill:none;stroke:#000000;stroke-width:2.56917334;stroke-linecap:butt;stroke-linejoin:miter;stroke-miterlimit:10;stroke-opacity:1;stroke-dasharray:none"
             d="m 251.18921,366.18392 c 0,0 5.97484,-3.64529 6.12067,-3.9872 l 3.42993,-8.04112 c 0.94767,3.95871 3.02545,11.40918 3.02545,11.40918 l 18.69655,22.27366 -10.35014,-10.2668 -10.35009,-10.26681 z"
             id="path7451"
             inkscape:connector-curvature="0"
             sodipodi:nodetypes="cscccccc" />
          <path
             sodipodi:nodetypes="cscccccc"
             inkscape:connector-curvature="0"
             id="path7453"
             d="m 251.18921,345.81012 c 0,0 5.97484,3.64529 6.12067,3.9872 l 3.42993,8.04112 c 0.94767,-3.95871 3.02545,-11.40918 3.02545,-11.40918 l 18.69655,-22.27366 -10.35014,10.2668 -10.35009,10.26681 z"
             style="fill:none;stroke:#000000;stroke-width:2.56917334;stroke-linecap:butt;stroke-linejoin:miter;stroke-miterlimit:10;stroke-opacity:1;stroke-dasharray:none" />
          <path
             style="fill:none;stroke:#000000;stroke-width:2.56917334;stroke-linecap:butt;stroke-linejoin:miter;stroke-miterlimit:10;stroke-opacity:1;stroke-dasharray:none"
             d="m 274.21637,330.39456 c 0,0 6.42403,-2.7783 6.61603,-3.09656 l 4.51564,-7.48553 c 0.38752,4.05207 1.40815,11.71921 1.40815,11.71921 l 15.41473,24.65897 -8.82057,-11.60737 -8.8205,-11.60733 z"
             id="path7455"
             inkscape:connector-curvature="0"
             sodipodi:nodetypes="cscccccc" />
          <path
             sodipodi:nodetypes="cscccccc"
             inkscape:connector-curvature="0"
             id="path7457"
             d="m 277.08809,385.22151 c 0,0 6.67925,2.09159 6.90346,2.38803 l 5.27336,6.97251 c -0.0382,-4.07037 0.17544,-11.8022 0.17544,-11.8022 l 12.75272,-26.13516 -7.55895,12.46578 -7.55888,12.46574 z"
             style="fill:none;stroke:#000000;stroke-width:2.56917334;stroke-linecap:butt;stroke-linejoin:miter;stroke-miterlimit:10;stroke-opacity:1;stroke-dasharray:none" />
        </g>
        <path
           style="fill:none;stroke:#000000;stroke-width:2.02854919;stroke-linecap:butt;stroke-linejoin:miter;stroke-miterlimit:10;stroke-opacity:1;stroke-dasharray:none"
           d="m 575.07829,225.4235 c 0,0 4.58719,1.04887 4.81716,0.9496 l 5.40854,-2.3346 c -1.38905,2.40618 -3.86118,7.07498 -3.86118,7.07498 l -1.16456,17.24157 -0.40482,-7.33477 -0.21043,-10.00302 z"
           id="path7459"
           inkscape:connector-curvature="0"
           sodipodi:nodetypes="cscccccc" />
      </g>
      <g
         id="flowRoot7780"
         style="font-size:24px;font-style:normal;font-weight:normal;line-height:125%;letter-spacing:0px;word-spacing:0px;fill:#000000;fill-opacity:1;stroke:none;font-family:Sans"
         transform="matrix(0.58030903,0,0,0.60302056,83.471174,273.04672)">
        <path
           id="path7965"
           d="m 593.08203,-172.31733 0,2.02734 -11.35547,0 c -0.0156,-0.50781 0.0664,-0.99609 0.2461,-1.46484 0.28906,-0.77344 0.75195,-1.53515 1.38867,-2.28516 0.63671,-0.74999 1.55663,-1.61718 2.75976,-2.60156 1.86718,-1.53124 3.1289,-2.74413 3.78516,-3.63867 0.65624,-0.89452 0.98437,-1.74022 0.98437,-2.53711 0,-0.83592 -0.29883,-1.541 -0.89648,-2.11523 -0.59766,-0.57421 -1.37696,-0.86132 -2.33789,-0.86133 -1.01563,1e-5 -1.82813,0.3047 -2.4375,0.91406 -0.60938,0.60939 -0.91797,1.45314 -0.92578,2.53125 l -2.16797,-0.22266 c 0.14844,-1.61717 0.70703,-2.84959 1.67578,-3.69726 0.96875,-0.84764 2.26953,-1.27147 3.90234,-1.27149 1.64843,2e-5 2.95312,0.45705 3.91407,1.3711 0.96092,0.91407 1.44139,2.04689 1.4414,3.39843 -10e-6,0.68752 -0.14063,1.3633 -0.42187,2.02735 -0.28126,0.66407 -0.74806,1.36329 -1.40039,2.09765 -0.65236,0.73439 -1.73634,1.7422 -3.25196,3.02344 -1.26563,1.06251 -2.07812,1.78321 -2.4375,2.16211 -0.35937,0.37891 -0.65625,0.75977 -0.89062,1.14258 z"
           inkscape:connector-curvature="0" />
        <path
           id="path7967"
           d="m 603.30078,-170.28999 -2.10937,0 0,-13.4414 c -0.50782,0.48439 -1.17384,0.96876 -1.99805,1.45312 -0.82422,0.48439 -1.56446,0.84767 -2.2207,1.08985 l 0,-2.03907 c 1.17968,-0.55467 2.21093,-1.22654 3.09375,-2.01562 0.8828,-0.78905 1.5078,-1.55467 1.875,-2.29688 l 1.35937,0 z"
           inkscape:connector-curvature="0" />
        <path
           id="path7969"
           d="m 619.66016,-183.26264 -2.09766,0.16406 c -0.18751,-0.82811 -0.45313,-1.42967 -0.79688,-1.80469 -0.57032,-0.60155 -1.27344,-0.90233 -2.10937,-0.90234 -0.67188,1e-5 -1.26172,0.18751 -1.76953,0.5625 -0.66407,0.48439 -1.18751,1.19142 -1.57031,2.12109 -0.38282,0.9297 -0.58204,2.25392 -0.59766,3.97266 0.50781,-0.77343 1.1289,-1.34765 1.86328,-1.72266 0.73437,-0.37499 1.5039,-0.56249 2.30859,-0.5625 1.40625,1e-5 2.60351,0.51759 3.5918,1.55274 0.98827,1.03516 1.48241,2.37305 1.48242,4.01367 -10e-6,1.07813 -0.23243,2.08008 -0.69726,3.00586 -0.46486,0.92578 -1.10353,1.63476 -1.91602,2.12695 -0.81251,0.49219 -1.73438,0.73828 -2.76562,0.73828 -1.75782,0 -3.19141,-0.64648 -4.30078,-1.93945 -1.10938,-1.29297 -1.66407,-3.42382 -1.66407,-6.39258 0,-3.3203 0.61328,-5.73436 1.83985,-7.24219 1.07031,-1.31248 2.51171,-1.96873 4.32422,-1.96875 1.35155,2e-5 2.45897,0.37893 3.32226,1.13672 0.86327,0.75783 1.38085,1.8047 1.55274,3.14063 z m -8.61329,7.40625 c 0,0.72656 0.1543,1.42188 0.4629,2.08593 0.30859,0.66407 0.74023,1.16993 1.29492,1.51758 0.55468,0.34766 1.13671,0.52149 1.74609,0.52149 0.89062,0 1.65624,-0.35938 2.29688,-1.07813 0.64061,-0.71874 0.96092,-1.69531 0.96093,-2.92969 -10e-6,-1.18749 -0.31641,-2.12303 -0.94922,-2.80664 -0.63282,-0.68358 -1.42969,-1.02538 -2.39062,-1.02539 -0.95313,10e-6 -1.76172,0.34181 -2.42578,1.02539 -0.66407,0.68361 -0.9961,1.58009 -0.9961,2.68946 z"
           inkscape:connector-curvature="0" />
        <path
           id="path7971"
           d="m 622.07422,-178.76264 c 0,-2.03124 0.20898,-3.66601 0.62695,-4.9043 0.41797,-1.23827 1.03906,-2.19334 1.86328,-2.86523 0.82422,-0.67186 1.86133,-1.0078 3.11133,-1.00782 0.92187,2e-5 1.73046,0.18557 2.42578,0.55664 0.69531,0.37111 1.26952,0.90627 1.72266,1.60547 0.45311,0.69924 0.80858,1.5508 1.0664,2.55469 0.25781,1.00392 0.38671,2.35743 0.38672,4.06055 -10e-6,2.01563 -0.20704,3.64258 -0.62109,4.88086 -0.41407,1.23828 -1.03321,2.19531 -1.85742,2.87109 -0.82423,0.67578 -1.86524,1.01367 -3.12305,1.01367 -1.65625,0 -2.95703,-0.59375 -3.90234,-1.78125 -1.13282,-1.42968 -1.69922,-3.75781 -1.69922,-6.98437 z m 2.16797,0 c -1e-5,2.82032 0.33007,4.69727 0.99023,5.63086 0.66015,0.93359 1.47461,1.40039 2.44336,1.40039 0.96874,0 1.7832,-0.46875 2.44336,-1.40625 0.66015,-0.9375 0.99022,-2.8125 0.99023,-5.625 -10e-6,-2.82812 -0.33008,-4.70702 -0.99023,-5.63672 -0.66016,-0.92967 -1.48243,-1.39452 -2.4668,-1.39453 -0.96875,1e-5 -1.74219,0.41017 -2.32031,1.23047 -0.72656,1.04688 -1.08985,2.98048 -1.08984,5.80078 z"
           inkscape:connector-curvature="0" />
        <path
           id="path7973"
           d="m 635.43359,-178.76264 c 0,-2.03124 0.20899,-3.66601 0.62696,-4.9043 0.41796,-1.23827 1.03906,-2.19334 1.86328,-2.86523 0.82421,-0.67186 1.86132,-1.0078 3.11133,-1.00782 0.92186,2e-5 1.73046,0.18557 2.42578,0.55664 0.6953,0.37111 1.26952,0.90627 1.72265,1.60547 0.45312,0.69924 0.80859,1.5508 1.06641,2.55469 0.2578,1.00392 0.38671,2.35743 0.38672,4.06055 -10e-6,2.01563 -0.20704,3.64258 -0.6211,4.88086 -0.41407,1.23828 -1.03321,2.19531 -1.85742,2.87109 -0.82422,0.67578 -1.86524,1.01367 -3.12304,1.01367 -1.65626,0 -2.95704,-0.59375 -3.90235,-1.78125 -1.13281,-1.42968 -1.69922,-3.75781 -1.69922,-6.98437 z m 2.16797,0 c 0,2.82032 0.33008,4.69727 0.99024,5.63086 0.66015,0.93359 1.4746,1.40039 2.44336,1.40039 0.96874,0 1.78319,-0.46875 2.44336,-1.40625 0.66014,-0.9375 0.99022,-2.8125 0.99023,-5.625 -10e-6,-2.82812 -0.33009,-4.70702 -0.99023,-5.63672 -0.66017,-0.92967 -1.48243,-1.39452 -2.4668,-1.39453 -0.96876,1e-5 -1.74219,0.41017 -2.32031,1.23047 -0.72657,1.04688 -1.08985,2.98048 -1.08985,5.80078 z"
           inkscape:connector-curvature="0" />
        <path
           id="path7975"
           d="m 648.79297,-178.76264 c 0,-2.03124 0.20898,-3.66601 0.62695,-4.9043 0.41797,-1.23827 1.03906,-2.19334 1.86328,-2.86523 0.82422,-0.67186 1.86133,-1.0078 3.11133,-1.00782 0.92187,2e-5 1.73046,0.18557 2.42578,0.55664 0.69531,0.37111 1.26952,0.90627 1.72266,1.60547 0.45311,0.69924 0.80858,1.5508 1.0664,2.55469 0.25781,1.00392 0.38671,2.35743 0.38672,4.06055 -10e-6,2.01563 -0.20704,3.64258 -0.62109,4.88086 -0.41407,1.23828 -1.03321,2.19531 -1.85742,2.87109 -0.82423,0.67578 -1.86524,1.01367 -3.12305,1.01367 -1.65625,0 -2.95703,-0.59375 -3.90234,-1.78125 -1.13282,-1.42968 -1.69922,-3.75781 -1.69922,-6.98437 z m 2.16797,0 c -1e-5,2.82032 0.33007,4.69727 0.99023,5.63086 0.66015,0.93359 1.47461,1.40039 2.44336,1.40039 0.96874,0 1.7832,-0.46875 2.44336,-1.40625 0.66015,-0.9375 0.99022,-2.8125 0.99023,-5.625 -10e-6,-2.82812 -0.33008,-4.70702 -0.99023,-5.63672 -0.66016,-0.92967 -1.48243,-1.39452 -2.4668,-1.39453 -0.96875,1e-5 -1.74219,0.41017 -2.32031,1.23047 -0.72656,1.04688 -1.08985,2.98048 -1.08984,5.80078 z"
           inkscape:connector-curvature="0" />
      </g>
    </g>
  </g>
</svg>
